<svg width="131" height="24" viewBox="0 0 131 24" fill="none" xmlns="http://www.w3.org/2000/svg">
<g clip-path="url(#clip0_789_4518)">
<path d="M73.413 17.7142H76.2108V7.16102H73.413V17.7142ZM73.413 5.51533H76.2108V3.00562H73.413V5.51533Z" fill="#FDFEFE"/>
<path d="M78.0138 21.1702H80.8116V16.521H80.8524C81.4488 17.4262 82.416 18.0228 83.8968 18.0228C86.6124 18.0228 88.464 15.8628 88.464 12.4479C88.464 9.15647 86.6742 6.87305 83.8764 6.87305C82.4364 6.87305 81.4488 7.55195 80.7702 8.47763H80.7084V7.16105H78.0138V21.1702ZM83.3004 15.6982C81.6342 15.6982 80.7498 14.4434 80.7498 12.5302C80.7498 10.6376 81.4488 9.13595 83.1978 9.13595C84.9258 9.13595 85.6248 10.5348 85.6248 12.5302C85.6248 14.5256 84.72 15.6982 83.3004 15.6982Z" fill="#FDFEFE"/>
<path d="M94.0446 18.0228C96.678 18.0228 98.4882 16.7474 98.4882 14.6285C98.4882 12.1599 96.534 11.6662 94.7646 11.2959C93.2628 10.9874 91.8642 10.905 91.8642 9.99995C91.8642 9.23879 92.5842 8.82737 93.6744 8.82737C94.8678 8.82737 95.5878 9.23879 95.7108 10.3702H98.241C98.0358 8.25137 96.4926 6.87305 93.7158 6.87305C91.3086 6.87305 89.4162 7.96337 89.4162 10.2468C89.4162 12.5508 91.2678 13.065 93.1602 13.4354C94.6002 13.7234 95.937 13.8262 95.937 14.8342C95.937 15.5748 95.238 16.0479 94.0038 16.0479C92.7486 16.0479 91.8846 15.513 91.6998 14.2994H89.1078C89.2722 16.5416 90.9798 18.0228 94.0446 18.0228Z" fill="#FDFEFE"/>
<path d="M109.11 17.7143V7.16113H106.312V13.2503C106.312 14.6491 105.51 15.6366 104.194 15.6366C103 15.6366 102.445 14.9577 102.445 13.7235V7.16113H99.6678V14.1966C99.6678 16.5006 100.984 18.0023 103.33 18.0023C104.811 18.0023 105.634 17.4469 106.354 16.48H106.415V17.7143H109.11Z" fill="#FDFEFE"/>
<path d="M110.92 17.7142H113.717V11.5839C113.717 10.185 114.479 9.27995 115.61 9.27995C116.639 9.27995 117.235 9.89705 117.235 11.0902V17.7142H120.033V11.5839C120.033 10.185 120.753 9.27995 121.925 9.27995C122.954 9.27995 123.551 9.89705 123.551 11.0902V17.7142H126.349V10.617C126.349 8.31305 125.093 6.87305 122.872 6.87305C121.535 6.87305 120.424 7.57247 119.704 8.72447H119.663C119.149 7.61363 118.079 6.87305 116.741 6.87305C115.281 6.87305 114.253 7.61363 113.677 8.58047H113.615V7.16105H110.92V17.7142Z" fill="#FDFEFE"/>
<path d="M0.494507 17.7142H3.29222V3.00562H0.494507V17.7142Z" fill="#FDFEFE"/>
<path d="M10.133 18.0228C13.4039 18.0228 15.6461 15.5954 15.6461 12.4479C15.6461 9.30047 13.4039 6.87305 10.133 6.87305C6.86214 6.87305 4.61987 9.30047 4.61987 12.4479C4.61987 15.5954 6.86214 18.0228 10.133 18.0228ZM10.133 15.8834C8.40504 15.8834 7.45872 14.505 7.45872 12.4479C7.45872 10.3908 8.40504 8.99195 10.133 8.99195C11.8405 8.99195 12.8073 10.3908 12.8073 12.4479C12.8073 14.505 11.8405 15.8834 10.133 15.8834Z" fill="#FDFEFE"/>
<path d="M21.5958 21.3142C23.1592 21.3142 24.517 20.9439 25.4015 20.121C26.1832 19.401 26.6564 18.393 26.6564 16.9119V7.16105H23.9615V8.27195H23.9204C23.2826 7.38737 22.3158 6.87305 20.9992 6.87305C18.325 6.87305 16.4324 8.88905 16.4324 12.0365C16.4324 15.225 18.7364 17.0765 21.0815 17.0765C22.4186 17.0765 23.221 16.5416 23.8381 15.8422H23.8998V16.9942C23.8998 18.4342 23.1386 19.1954 21.5546 19.1954C20.2586 19.1954 19.6621 18.681 19.4358 18.0228H16.6586C16.9466 20.0799 18.7158 21.3142 21.5958 21.3142ZM21.5546 14.8342C20.1146 14.8342 19.1684 13.785 19.1684 11.9954C19.1684 10.2262 20.1146 9.11537 21.5341 9.11537C23.221 9.11537 24.0438 10.4319 24.0438 11.9748C24.0438 13.5382 23.3238 14.8342 21.5546 14.8342Z" fill="#FDFEFE"/>
<path d="M33.4566 18.0228C36.7275 18.0228 38.9698 15.5954 38.9698 12.4479C38.9698 9.30047 36.7275 6.87305 33.4566 6.87305C30.1858 6.87305 27.9435 9.30047 27.9435 12.4479C27.9435 15.5954 30.1858 18.0228 33.4566 18.0228ZM33.4566 15.8834C31.7286 15.8834 30.7824 14.505 30.7824 12.4479C30.7824 10.3908 31.7286 8.99195 33.4566 8.99195C35.1641 8.99195 36.131 10.3908 36.131 12.4479C36.131 14.505 35.1641 15.8834 33.4566 15.8834Z" fill="#FDFEFE"/>
<path d="M127.365 5.42868C127.365 4.95529 127.749 4.57153 128.222 4.57153H129.937C130.41 4.57153 130.794 4.95529 130.794 5.42868C130.794 5.90206 130.41 6.28582 129.937 6.28582H128.222C127.749 6.28582 127.365 5.90206 127.365 5.42868Z" fill="#FDFEFE"/>
<path fill-rule="evenodd" clip-rule="evenodd" d="M55.9366 0C62.5638 0 67.9368 5.37259 67.9368 12C67.9368 18.6274 62.5638 24 55.9366 24C49.3092 24 43.9366 18.6274 43.9366 12C43.9366 5.37259 49.3092 0 55.9366 0ZM55.5029 0.897954C54.1339 1.09061 52.8303 2.19065 51.8184 4.03044C51.5249 4.5641 51.2601 5.15368 51.0293 5.79026C52.4052 5.4445 53.9167 5.24065 55.5029 5.20912V0.897954ZM50.0151 6.07848C50.3021 5.17775 50.6532 4.34904 51.0583 3.61239C51.5599 2.70035 52.1553 1.91277 52.826 1.30786C49.1787 2.36714 46.3038 5.24207 45.2445 8.88942C45.8494 8.21868 46.6369 7.62336 47.549 7.12176C48.2857 6.71658 49.1143 6.36546 50.0151 6.07848ZM49.7269 7.09266C49.3811 8.46858 49.1773 9.98004 49.1457 11.5663H44.8345C45.0272 10.1972 46.1272 8.89368 47.9671 7.88184C48.5007 7.58832 49.0903 7.32348 49.7269 7.09266ZM50.0134 11.5663C50.0492 9.8352 50.2984 8.21004 50.7108 6.77412C52.1467 6.3618 53.7718 6.11256 55.5029 6.07674V7.95048C54.8571 9.60372 53.54 10.9207 51.8867 11.5663H50.0134ZM49.1457 12.4337H44.8345C45.0272 13.8028 46.1272 15.1063 47.9671 16.1182C48.5007 16.4117 49.0903 16.6765 49.7269 16.9073C49.3811 15.5314 49.1773 14.02 49.1457 12.4337ZM50.7108 17.2259C50.2984 15.79 50.0492 14.1648 50.0134 12.4337H51.8867C53.54 13.0793 54.8571 14.3963 55.5029 16.0495V17.9233C53.7718 17.8874 52.1467 17.6382 50.7108 17.2259ZM50.0151 17.9215C49.1143 17.6345 48.2857 17.2834 47.549 16.8782C46.6369 16.3766 45.8494 15.7813 45.2445 15.1106C46.3038 18.7579 49.1787 21.6329 52.826 22.6921C52.1553 22.0872 51.5599 21.2996 51.0583 20.3876C50.6532 19.651 50.3021 18.8222 50.0151 17.9215ZM55.5029 23.102C54.1339 22.9094 52.8303 21.8093 51.8184 19.9696C51.5249 19.4359 51.2601 18.8463 51.0293 18.2098C52.4052 18.5555 53.9167 18.7594 55.5029 18.7909V23.102ZM59.0472 22.6921C59.718 22.0872 60.3132 21.2996 60.8148 20.3876C61.2198 19.651 61.5714 18.8222 61.8582 17.9215C62.7588 17.6345 63.5874 17.2834 64.3242 16.8782C65.2362 16.3766 66.024 15.7813 66.6288 15.1106C65.5692 18.7579 62.6946 21.6329 59.0472 22.6921ZM60.8442 18.2098C60.6132 18.8463 60.348 19.4359 60.0546 19.9696C59.0429 21.8093 57.7393 22.9094 56.3703 23.102V18.7909C57.9565 18.7594 59.468 18.5555 60.8442 18.2098ZM62.1462 16.9073C62.7828 16.6765 63.3726 16.4117 63.906 16.1182C65.7462 15.1063 66.846 13.8028 67.0386 12.4337H62.7276C62.6958 14.02 62.4918 15.5314 62.1462 16.9073ZM61.86 12.4337C61.824 14.1648 61.575 15.79 61.1622 17.2259C59.7265 17.6382 58.1014 17.8874 56.3703 17.9233V16.0509C57.0159 14.3971 58.3333 13.0795 59.9871 12.4337H61.86ZM62.7276 11.5663H67.0386C66.846 10.1972 65.7462 8.89368 63.906 7.88184C63.3726 7.58832 62.7828 7.32348 62.1462 7.09266C62.4918 8.46858 62.6958 9.98004 62.7276 11.5663ZM61.1622 6.77412C61.575 8.21004 61.824 9.8352 61.86 11.5663H59.9871C58.3333 10.9205 57.0159 9.60294 56.3703 7.9491V6.07674C58.1014 6.11256 59.7265 6.3618 61.1622 6.77412ZM61.8582 6.07848C62.7588 6.36546 63.5874 6.71658 64.3242 7.12176C65.2362 7.62336 66.024 8.21868 66.6288 8.88942C65.5692 5.24207 62.6946 2.36714 59.0472 1.30786C59.718 1.91277 60.3132 2.70035 60.8148 3.61239C61.2198 4.34904 61.5714 5.17775 61.8582 6.07848ZM56.3703 0.897954C57.7393 1.09061 59.0429 2.19065 60.0546 4.03044C60.348 4.5641 60.6132 5.15368 60.8442 5.79026C59.468 5.4445 57.9565 5.24065 56.3703 5.20912V0.897954Z" fill="#FDFEFE"/>
</g>
<defs>
<clipPath id="clip0_789_4518">
<rect width="130.8" height="24" fill="white"/>
</clipPath>
</defs>
</svg>
